STARTFONT 2.1
FONT -Adobe-ITC Souvenir-Demi-R-Normal--10-100-75-75-P-62-ISO8859-1
SIZE 10 75 75
FONTBOUNDINGBOX 15 13 -2 -2

STARTPROPERTIES 26
FONTNAME_REGISTRY ""
FAMILY_NAME "ITC Souvenir"
FOUNDRY "Adobe"
WEIGHT_NAME "Demi"
SLANT "R"
SETWIDTH_NAME "Normal"
ADD_STYLE_NAME ""
PIXEL_SIZE 10
POINT_SIZE 100
RESOLUTION_X 75
RESOLUTION_Y 75
SPACING "P"
AVERAGE_WIDTH 62
CHARSET_REGISTRY "ISO8859"
CHARSET_ENCODING "1"
CHARSET_COLLECTIONS "ASCII ISO8859-1 ADOBE-STANDARD"
FULL_NAME "ITC Souvenir Demi"
COPYRIGHT "Copyright (c) 1985,1987 Adobe Systems, Inc., Portions Copyright 1988 Digital Equipment Corp."
CAP_HEIGHT 8
X_HEIGHT 5
_DEC_DEVICE_FONTNAMES "PS=Souvenir-Demi"
WEIGHT 10
QUAD_WIDTH 7
DEFAULT_CHAR 0
FONT_DESCENT 2
FONT_ASCENT 10
ENDPROPERTIES

CHARS 190

STARTCHAR space
ENCODING 32
SWIDTH 340 0
DWIDTH 3 0
BBX 1 1 0 0
BITMAP
00
ENDCHAR

STARTCHAR exclam
ENCODING 33
SWIDTH 360 0
DWIDTH 4 0
BBX 2 8 1 0
BITMAP
C0
C0
C0
C0
C0
80
00
C0
ENDCHAR

STARTCHAR quotedbl
ENCODING 34
SWIDTH 580 0
DWIDTH 6 0
BBX 3 3 1 5
BITMAP
A0
A0
A0
ENDCHAR

STARTCHAR numbersign
ENCODING 35
SWIDTH 680 0
DWIDTH 7 0
BBX 7 7 0 0
BITMAP
28
28
7E
28
FC
50
50
ENDCHAR

STARTCHAR dollar
ENCODING 36
SWIDTH 680 0
DWIDTH 7 0
BBX 5 9 1 -1
BITMAP
20
70
C8
E0
70
38
98
70
20
ENDCHAR

STARTCHAR percent
ENCODING 37
SWIDTH 940 0
DWIDTH 9 0
BBX 8 8 0 0
BITMAP
61
92
94
68
16
29
49
86
ENDCHAR

STARTCHAR ampersand
ENCODING 38
SWIDTH 840 0
DWIDTH 9 0
BBX 7 8 1 0
BITMAP
70
D8
D8
70
DE
CC
DC
76
ENDCHAR

STARTCHAR quoteright
ENCODING 39
SWIDTH 320 0
DWIDTH 3 0
BBX 2 3 0 5
BITMAP
C0
40
80
ENDCHAR

STARTCHAR parenleft
ENCODING 40
SWIDTH 340 0
DWIDTH 4 0
BBX 3 10 0 -2
BITMAP
20
60
40
C0
C0
C0
C0
40
60
20
ENDCHAR

STARTCHAR parenright
ENCODING 41
SWIDTH 340 0
DWIDTH 4 0
BBX 3 10 0 -2
BITMAP
80
C0
40
60
60
60
60
40
C0
80
ENDCHAR

STARTCHAR asterisk
ENCODING 42
SWIDTH 400 0
DWIDTH 4 0
BBX 3 3 0 5
BITMAP
A0
40
A0
ENDCHAR

STARTCHAR plus
ENCODING 43
SWIDTH 660 0
DWIDTH 7 0
BBX 5 5 1 1
BITMAP
20
20
F8
20
20
ENDCHAR

STARTCHAR comma
ENCODING 44
SWIDTH 340 0
DWIDTH 3 0
BBX 2 3 0 -2
BITMAP
C0
40
80
ENDCHAR

STARTCHAR minus
ENCODING 45
SWIDTH 660 0
DWIDTH 7 0
BBX 5 1 1 3
BITMAP
F8
ENDCHAR

STARTCHAR period
ENCODING 46
SWIDTH 340 0
DWIDTH 3 0
BBX 2 1 0 0
BITMAP
C0
ENDCHAR

STARTCHAR slash
ENCODING 47
SWIDTH 460 0
DWIDTH 5 0
BBX 4 8 0 0
BITMAP
10
10
20
20
40
40
80
80
ENDCHAR

STARTCHAR zero
ENCODING 48
SWIDTH 680 0
DWIDTH 7 0
BBX 5 8 1 0
BITMAP
70
D8
D8
D8
D8
D8
D8
70
ENDCHAR

STARTCHAR one
ENCODING 49
SWIDTH 680 0
DWIDTH 7 0
BBX 3 8 2 0
BITMAP
60
E0
60
60
60
60
60
60
ENDCHAR

STARTCHAR two
ENCODING 50
SWIDTH 680 0
DWIDTH 7 0
BBX 5 8 1 0
BITMAP
70
D8
18
18
30
60
C0
F8
ENDCHAR

STARTCHAR three
ENCODING 51
SWIDTH 680 0
DWIDTH 7 0
BBX 5 8 1 0
BITMAP
70
D8
18
30
18
18
D8
70
ENDCHAR

STARTCHAR four
ENCODING 52
SWIDTH 680 0
DWIDTH 7 0
BBX 6 8 0 0
BITMAP
18
38
58
58
98
FC
18
18
ENDCHAR

STARTCHAR five
ENCODING 53
SWIDTH 680 0
DWIDTH 7 0
BBX 5 8 1 0
BITMAP
F8
C0
C0
F0
18
98
D8
70
ENDCHAR

STARTCHAR six
ENCODING 54
SWIDTH 680 0
DWIDTH 7 0
BBX 5 8 1 0
BITMAP
30
60
C0
F0
D8
D8
D8
70
ENDCHAR

STARTCHAR seven
ENCODING 55
SWIDTH 680 0
DWIDTH 7 0
BBX 5 8 1 0
BITMAP
F8
18
18
30
30
60
60
C0
ENDCHAR

STARTCHAR eight
ENCODING 56
SWIDTH 680 0
DWIDTH 7 0
BBX 5 8 1 0
BITMAP
70
D8
D8
70
D8
D8
D8
70
ENDCHAR

STARTCHAR nine
ENCODING 57
SWIDTH 680 0
DWIDTH 7 0
BBX 5 8 1 0
BITMAP
70
D8
D8
D8
78
18
30
60
ENDCHAR

STARTCHAR colon
ENCODING 58
SWIDTH 340 0
DWIDTH 3 0
BBX 2 5 0 0
BITMAP
C0
00
00
00
C0
ENDCHAR

STARTCHAR semicolon
ENCODING 59
SWIDTH 340 0
DWIDTH 3 0
BBX 2 7 0 -2
BITMAP
C0
00
00
00
C0
40
80
ENDCHAR

STARTCHAR less
ENCODING 60
SWIDTH 660 0
DWIDTH 7 0
BBX 6 5 0 1
BITMAP
0C
30
C0
30
0C
ENDCHAR

STARTCHAR equal
ENCODING 61
SWIDTH 660 0
DWIDTH 7 0
BBX 5 3 1 2
BITMAP
F8
00
F8
ENDCHAR

STARTCHAR greater
ENCODING 62
SWIDTH 660 0
DWIDTH 7 0
BBX 6 5 1 1
BITMAP
C0
30
0C
30
C0
ENDCHAR

STARTCHAR question
ENCODING 63
SWIDTH 540 0
DWIDTH 5 0
BBX 5 8 0 0
BITMAP
70
D8
18
30
60
60
00
60
ENDCHAR

STARTCHAR at
ENCODING 64
SWIDTH 860 0
DWIDTH 10 0
BBX 8 8 1 0
BITMAP
3C
42
9D
A5
AD
96
41
3E
ENDCHAR

STARTCHAR A
ENCODING 65
SWIDTH 740 0
DWIDTH 8 0
BBX 7 8 0 0
BITMAP
10
38
68
4C
CC
FE
86
86
ENDCHAR

STARTCHAR B
ENCODING 66
SWIDTH 740 0
DWIDTH 7 0
BBX 6 8 0 0
BITMAP
F8
CC
CC
F8
CC
CC
CC
F8
ENDCHAR

STARTCHAR C
ENCODING 67
SWIDTH 760 0
DWIDTH 8 0
BBX 7 8 0 0
BITMAP
3C
66
C2
C0
C0
C2
66
3C
ENDCHAR

STARTCHAR D
ENCODING 68
SWIDTH 820 0
DWIDTH 8 0
BBX 7 8 0 0
BITMAP
F8
CC
C6
C6
C6
C6
CC
F8
ENDCHAR

STARTCHAR E
ENCODING 69
SWIDTH 660 0
DWIDTH 6 0
BBX 5 8 0 0
BITMAP
F8
C0
C0
F0
C0
C0
C0
F8
ENDCHAR

STARTCHAR F
ENCODING 70
SWIDTH 620 0
DWIDTH 6 0
BBX 5 8 0 0
BITMAP
F8
C0
C0
F0
C0
C0
C0
C0
ENDCHAR

STARTCHAR G
ENCODING 71
SWIDTH 780 0
DWIDTH 8 0
BBX 7 8 0 0
BITMAP
3C
66
C2
C0
CE
C6
66
3C
ENDCHAR

STARTCHAR H
ENCODING 72
SWIDTH 820 0
DWIDTH 8 0
BBX 7 8 0 0
BITMAP
C6
C6
C6
FE
C6
C6
C6
C6
ENDCHAR

STARTCHAR I
ENCODING 73
SWIDTH 340 0
DWIDTH 3 0
BBX 2 8 0 0
BITMAP
C0
C0
C0
C0
C0
C0
C0
C0
ENDCHAR

STARTCHAR J
ENCODING 74
SWIDTH 560 0
DWIDTH 6 0
BBX 5 8 0 0
BITMAP
18
18
18
18
18
D8
98
70
ENDCHAR

STARTCHAR K
ENCODING 75
SWIDTH 780 0
DWIDTH 8 0
BBX 7 8 0 0
BITMAP
C6
CC
D8
F0
F0
D8
CC
C6
ENDCHAR

STARTCHAR L
ENCODING 76
SWIDTH 600 0
DWIDTH 6 0
BBX 5 8 0 0
BITMAP
C0
C0
C0
C0
C0
C0
C0
F8
ENDCHAR

STARTCHAR M
ENCODING 77
SWIDTH 920 0
DWIDTH 10 0
BBX 9 8 0 0
BITMAP
C180
C180
E380
F780
B580
BD80
9980
9980
ENDCHAR

STARTCHAR N
ENCODING 78
SWIDTH 760 0
DWIDTH 8 0
BBX 7 8 0 0
BITMAP
C2
E2
F2
BA
9E
8E
86
82
ENDCHAR

STARTCHAR O
ENCODING 79
SWIDTH 860 0
DWIDTH 9 0
BBX 8 8 0 0
BITMAP
3C
66
C3
C3
C3
C3
66
3C
ENDCHAR

STARTCHAR P
ENCODING 80
SWIDTH 680 0
DWIDTH 7 0
BBX 6 8 0 0
BITMAP
F8
CC
CC
CC
F8
C0
C0
C0
ENDCHAR

STARTCHAR Q
ENCODING 81
SWIDTH 860 0
DWIDTH 9 0
BBX 8 10 0 -2
BITMAP
3C
66
C3
C3
C3
CB
6A
3C
08
06
ENDCHAR

STARTCHAR R
ENCODING 82
SWIDTH 740 0
DWIDTH 7 0
BBX 6 8 0 0
BITMAP
F8
CC
CC
C8
F8
CC
CC
CC
ENDCHAR

STARTCHAR S
ENCODING 83
SWIDTH 680 0
DWIDTH 7 0
BBX 6 8 0 0
BITMAP
78
C4
E0
78
1C
0C
8C
78
ENDCHAR

STARTCHAR T
ENCODING 84
SWIDTH 680 0
DWIDTH 7 0
BBX 6 8 0 0
BITMAP
FC
30
30
30
30
30
30
30
ENDCHAR

STARTCHAR U
ENCODING 85
SWIDTH 760 0
DWIDTH 8 0
BBX 7 8 0 0
BITMAP
C2
C2
C2
C2
C2
C2
64
38
ENDCHAR

STARTCHAR V
ENCODING 86
SWIDTH 740 0
DWIDTH 8 0
BBX 7 8 0 0
BITMAP
C2
C2
64
64
64
38
38
10
ENDCHAR

STARTCHAR W
ENCODING 87
SWIDTH 1000 0
DWIDTH 11 0
BBX 10 8 0 0
BITMAP
CC40
CC40
CC40
6680
6680
6F80
3300
3300
ENDCHAR

STARTCHAR X
ENCODING 88
SWIDTH 740 0
DWIDTH 8 0
BBX 7 8 0 0
BITMAP
C2
C6
6C
38
38
6C
C6
86
ENDCHAR

STARTCHAR Y
ENCODING 89
SWIDTH 740 0
DWIDTH 8 0
BBX 8 8 0 0
BITMAP
C3
C2
66
64
3C
18
18
18
ENDCHAR

STARTCHAR Z
ENCODING 90
SWIDTH 620 0
DWIDTH 7 0
BBX 6 8 0 0
BITMAP
FC
0C
18
30
30
60
C0
FC
ENDCHAR

STARTCHAR bracketleft
ENCODING 91
SWIDTH 320 0
DWIDTH 3 0
BBX 3 10 0 -2
BITMAP
E0
C0
C0
C0
C0
C0
C0
C0
C0
E0
ENDCHAR

STARTCHAR backslash
ENCODING 92
SWIDTH 640 0
DWIDTH 5 0
BBX 4 8 0 0
BITMAP
80
80
40
40
20
20
10
10
ENDCHAR

STARTCHAR bracketright
ENCODING 93
SWIDTH 320 0
DWIDTH 4 0
BBX 3 10 0 -2
BITMAP
E0
60
60
60
60
60
60
60
60
E0
ENDCHAR

STARTCHAR asciicircum
ENCODING 94
SWIDTH 660 0
DWIDTH 7 0
BBX 5 5 1 3
BITMAP
20
70
50
88
88
ENDCHAR

STARTCHAR underscore
ENCODING 95
SWIDTH 500 0
DWIDTH 5 0
BBX 5 1 0 -2
BITMAP
F8
ENDCHAR

STARTCHAR quoteleft
ENCODING 96
SWIDTH 320 0
DWIDTH 3 0
BBX 2 3 0 5
BITMAP
40
80
C0
ENDCHAR

STARTCHAR a
ENCODING 97
SWIDTH 580 0
DWIDTH 6 0
BBX 6 5 0 0
BITMAP
70
98
78
D8
6C
ENDCHAR

STARTCHAR b
ENCODING 98
SWIDTH 620 0
DWIDTH 6 0
BBX 5 8 0 0
BITMAP
C0
C0
C0
F0
D8
D8
D8
70
ENDCHAR

STARTCHAR c
ENCODING 99
SWIDTH 520 0
DWIDTH 6 0
BBX 5 5 0 0
BITMAP
70
C8
C0
C8
70
ENDCHAR

STARTCHAR d
ENCODING 100
SWIDTH 620 0
DWIDTH 6 0
BBX 5 8 0 0
BITMAP
18
18
18
78
D8
D8
D8
78
ENDCHAR

STARTCHAR e
ENCODING 101
SWIDTH 560 0
DWIDTH 6 0
BBX 5 5 0 0
BITMAP
70
D8
F0
C0
78
ENDCHAR

STARTCHAR f
ENCODING 102
SWIDTH 360 0
DWIDTH 5 0
BBX 4 8 0 0
BITMAP
30
60
60
F0
60
60
60
60
ENDCHAR

STARTCHAR g
ENCODING 103
SWIDTH 600 0
DWIDTH 6 0
BBX 6 7 0 -2
BITMAP
7C
D8
D8
D8
70
98
70
ENDCHAR

STARTCHAR h
ENCODING 104
SWIDTH 620 0
DWIDTH 6 0
BBX 5 8 0 0
BITMAP
C0
C0
C0
F0
D8
D8
D8
D8
ENDCHAR

STARTCHAR i
ENCODING 105
SWIDTH 300 0
DWIDTH 3 0
BBX 2 7 0 0
BITMAP
C0
00
C0
C0
C0
C0
C0
ENDCHAR

STARTCHAR j
ENCODING 106
SWIDTH 300 0
DWIDTH 3 0
BBX 3 9 -1 -2
BITMAP
60
00
60
60
60
60
60
60
C0
ENDCHAR

STARTCHAR k
ENCODING 107
SWIDTH 600 0
DWIDTH 6 0
BBX 5 8 0 0
BITMAP
C0
C0
C0
D8
F0
E0
F0
D8
ENDCHAR

STARTCHAR l
ENCODING 108
SWIDTH 300 0
DWIDTH 3 0
BBX 2 8 0 0
BITMAP
C0
C0
C0
C0
C0
C0
C0
C0
ENDCHAR

STARTCHAR m
ENCODING 109
SWIDTH 920 0
DWIDTH 9 0
BBX 8 5 0 0
BITMAP
B6
DB
DB
DB
DB
ENDCHAR

STARTCHAR n
ENCODING 110
SWIDTH 620 0
DWIDTH 6 0
BBX 5 5 0 0
BITMAP
B0
D8
D8
D8
D8
ENDCHAR

STARTCHAR o
ENCODING 111
SWIDTH 620 0
DWIDTH 6 0
BBX 5 5 0 0
BITMAP
70
D8
D8
D8
70
ENDCHAR

STARTCHAR p
ENCODING 112
SWIDTH 640 0
DWIDTH 6 0
BBX 5 7 0 -2
BITMAP
B0
D8
D8
D8
F0
C0
C0
ENDCHAR

STARTCHAR q
ENCODING 113
SWIDTH 620 0
DWIDTH 6 0
BBX 5 7 0 -2
BITMAP
68
D8
D8
D8
78
18
18
ENDCHAR

STARTCHAR r
ENCODING 114
SWIDTH 440 0
DWIDTH 5 0
BBX 4 5 0 0
BITMAP
B0
E0
C0
C0
C0
ENDCHAR

STARTCHAR s
ENCODING 115
SWIDTH 500 0
DWIDTH 6 0
BBX 5 5 0 0
BITMAP
78
C0
F8
18
F0
ENDCHAR

STARTCHAR t
ENCODING 116
SWIDTH 380 0
DWIDTH 4 0
BBX 4 7 -1 0
BITMAP
60
60
F0
60
60
60
30
ENDCHAR

STARTCHAR u
ENCODING 117
SWIDTH 620 0
DWIDTH 6 0
BBX 5 5 0 0
BITMAP
D8
D8
D8
D8
68
ENDCHAR

STARTCHAR v
ENCODING 118
SWIDTH 540 0
DWIDTH 6 0
BBX 5 5 0 0
BITMAP
D8
D8
50
70
20
ENDCHAR

STARTCHAR w
ENCODING 119
SWIDTH 800 0
DWIDTH 8 0
BBX 7 5 0 0
BITMAP
DA
DA
5C
6C
6C
ENDCHAR

STARTCHAR x
ENCODING 120
SWIDTH 560 0
DWIDTH 7 0
BBX 6 5 0 0
BITMAP
CC
78
30
78
CC
ENDCHAR

STARTCHAR y
ENCODING 121
SWIDTH 540 0
DWIDTH 6 0
BBX 5 7 0 -2
BITMAP
C8
C8
C8
48
30
10
60
ENDCHAR

STARTCHAR z
ENCODING 122
SWIDTH 500 0
DWIDTH 5 0
BBX 4 5 0 0
BITMAP
F0
30
60
C0
F0
ENDCHAR

STARTCHAR braceleft
ENCODING 123
SWIDTH 340 0
DWIDTH 4 0
BBX 4 10 0 -2
BITMAP
30
60
60
60
C0
60
60
60
60
30
ENDCHAR

STARTCHAR bar
ENCODING 124
SWIDTH 660 0
DWIDTH 5 0
BBX 1 8 2 0
BITMAP
80
80
80
80
80
80
80
80
ENDCHAR

STARTCHAR braceright
ENCODING 125
SWIDTH 340 0
DWIDTH 4 0
BBX 4 10 0 -2
BITMAP
C0
60
60
60
30
60
60
60
60
C0
ENDCHAR

STARTCHAR asciitilde
ENCODING 126
SWIDTH 660 0
DWIDTH 7 0
BBX 6 2 0 3
BITMAP
64
98
ENDCHAR

STARTCHAR exclamdown
ENCODING 161
SWIDTH 360 0
DWIDTH 4 0
BBX 2 8 1 -2
BITMAP
C0
00
40
C0
C0
C0
C0
C0
ENDCHAR

STARTCHAR cent
ENCODING 162
SWIDTH 680 0
DWIDTH 7 0
BBX 5 8 1 -1
BITMAP
20
70
D8
80
80
D8
70
20
ENDCHAR

STARTCHAR sterling
ENCODING 163
SWIDTH 680 0
DWIDTH 7 0
BBX 6 8 0 0
BITMAP
38
64
60
60
F8
60
64
D8
ENDCHAR

STARTCHAR currency
ENCODING 164
SWIDTH 740 0
DWIDTH 7 0
BBX 5 6 0 1
BITMAP
88
70
88
88
70
88
ENDCHAR

STARTCHAR yen
ENCODING 165
SWIDTH 760 0
DWIDTH 8 0
BBX 6 8 1 0
BITMAP
C4
C4
CC
68
FC
30
FC
30
ENDCHAR

STARTCHAR brokenbar
ENCODING 166
SWIDTH 660 0
DWIDTH 5 0
BBX 1 8 2 0
BITMAP
80
80
80
00
00
80
80
80
ENDCHAR

STARTCHAR section
ENCODING 167
SWIDTH 600 0
DWIDTH 6 0
BBX 5 10 0 -2
BITMAP
70
C8
E0
70
98
C8
70
38
98
70
ENDCHAR

STARTCHAR dieresis
ENCODING 168
SWIDTH 540 0
DWIDTH 6 0
BBX 3 1 1 6
BITMAP
A0
ENDCHAR

STARTCHAR copyright
ENCODING 169
SWIDTH 840 0
DWIDTH 9 0
BBX 8 8 0 0
BITMAP
3C
42
99
A5
A1
9D
42
3C
ENDCHAR

STARTCHAR ordfeminine
ENCODING 170
SWIDTH 440 0
DWIDTH 5 0
BBX 3 5 1 3
BITMAP
E0
20
A0
00
E0
ENDCHAR

STARTCHAR guillemotleft
ENCODING 171
SWIDTH 380 0
DWIDTH 5 0
BBX 5 5 -1 0
BITMAP
28
50
F0
50
28
ENDCHAR

STARTCHAR logicalnot
ENCODING 172
SWIDTH 660 0
DWIDTH 7 0
BBX 6 3 0 2
BITMAP
FC
04
04
ENDCHAR

STARTCHAR hyphen
ENCODING 173
SWIDTH 340 0
DWIDTH 5 0
BBX 3 1 1 3
BITMAP
E0
ENDCHAR

STARTCHAR registered
ENCODING 174
SWIDTH 840 0
DWIDTH 9 0
BBX 8 8 0 0
BITMAP
3C
42
B9
A5
B9
A5
42
3C
ENDCHAR

STARTCHAR macron
ENCODING 175
SWIDTH 440 0
DWIDTH 5 0
BBX 3 1 1 6
BITMAP
E0
ENDCHAR

STARTCHAR degree
ENCODING 176
SWIDTH 400 0
DWIDTH 4 0
BBX 4 4 0 4
BITMAP
60
90
90
60
ENDCHAR

STARTCHAR plusminus
ENCODING 177
SWIDTH 660 0
DWIDTH 7 0
BBX 5 5 1 1
BITMAP
20
F8
20
00
F8
ENDCHAR

STARTCHAR twosuperior
ENCODING 178
SWIDTH 408 0
DWIDTH 4 0
BBX 4 5 0 3
BITMAP
60
B0
60
C0
F0
ENDCHAR

STARTCHAR threesuperior
ENCODING 179
SWIDTH 408 0
DWIDTH 4 0
BBX 4 5 0 3
BITMAP
60
B0
60
30
E0
ENDCHAR

STARTCHAR acute
ENCODING 180
SWIDTH 380 0
DWIDTH 4 0
BBX 2 2 1 6
BITMAP
40
80
ENDCHAR

STARTCHAR mu
ENCODING 181
SWIDTH 620 0
DWIDTH 6 0
BBX 5 7 0 -2
BITMAP
D8
D8
D8
D8
E8
C0
C0
ENDCHAR

STARTCHAR paragraph
ENCODING 182
SWIDTH 780 0
DWIDTH 8 0
BBX 7 10 0 -2
BITMAP
7E
D4
D4
D4
74
14
14
14
14
14
ENDCHAR

STARTCHAR periodcentered
ENCODING 183
SWIDTH 340 0
DWIDTH 3 0
BBX 2 1 0 3
BITMAP
C0
ENDCHAR

STARTCHAR cedilla
ENCODING 184
SWIDTH 340 0
DWIDTH 4 0
BBX 2 2 0 -2
BITMAP
40
C0
ENDCHAR

STARTCHAR onesuperior
ENCODING 185
SWIDTH 408 0
DWIDTH 4 0
BBX 2 5 0 3
BITMAP
40
C0
40
40
40
ENDCHAR

STARTCHAR ordmasculine
ENCODING 186
SWIDTH 440 0
DWIDTH 5 0
BBX 3 5 1 3
BITMAP
E0
A0
E0
00
E0
ENDCHAR

STARTCHAR guillemotright
ENCODING 187
SWIDTH 380 0
DWIDTH 5 0
BBX 5 5 0 0
BITMAP
A0
50
78
50
A0
ENDCHAR

STARTCHAR onequarter
ENCODING 188
SWIDTH 1020 0
DWIDTH 10 0
BBX 8 8 1 0
BITMAP
42
C4
48
4A
56
2A
2F
42
ENDCHAR

STARTCHAR onehalf
ENCODING 189
SWIDTH 1020 0
DWIDTH 10 0
BBX 9 8 0 0
BITMAP
4200
C400
4800
4B00
5580
2300
2600
4780
ENDCHAR

STARTCHAR threequarters
ENCODING 190
SWIDTH 1020 0
DWIDTH 10 0
BBX 9 8 0 0
BITMAP
6100
B200
6400
3500
EB00
1500
1780
2100
ENDCHAR

STARTCHAR questiondown
ENCODING 191
SWIDTH 540 0
DWIDTH 5 0
BBX 5 8 0 -2
BITMAP
30
00
30
30
60
C0
D8
70
ENDCHAR

STARTCHAR Agrave
ENCODING 192
SWIDTH 740 0
DWIDTH 8 0
BBX 7 11 0 0
BITMAP
60
30
00
10
38
68
4C
CC
FE
86
86
ENDCHAR

STARTCHAR Aacute
ENCODING 193
SWIDTH 740 0
DWIDTH 8 0
BBX 7 11 0 0
BITMAP
0C
18
00
10
38
68
4C
CC
FE
86
86
ENDCHAR

STARTCHAR Acircumflex
ENCODING 194
SWIDTH 740 0
DWIDTH 8 0
BBX 7 11 0 0
BITMAP
18
24
00
10
38
68
4C
CC
FE
86
86
ENDCHAR

STARTCHAR Atilde
ENCODING 195
SWIDTH 740 0
DWIDTH 8 0
BBX 7 11 0 0
BITMAP
34
58
00
10
38
68
4C
CC
FE
86
86
ENDCHAR

STARTCHAR Adieresis
ENCODING 196
SWIDTH 740 0
DWIDTH 8 0
BBX 7 11 0 0
BITMAP
24
24
00
10
38
68
4C
CC
FE
86
86
ENDCHAR

STARTCHAR Aring
ENCODING 197
SWIDTH 740 0
DWIDTH 8 0
BBX 7 11 0 0
BITMAP
10
28
10
10
38
68
4C
CC
FE
86
86
ENDCHAR

STARTCHAR AE
ENCODING 198
SWIDTH 1020 0
DWIDTH 11 0
BBX 9 8 1 0
BITMAP
1F80
3C00
2C00
6F80
6C00
FC00
CC00
CF80
ENDCHAR

STARTCHAR Ccedilla
ENCODING 199
SWIDTH 760 0
DWIDTH 8 0
BBX 7 10 0 -2
BITMAP
3C
66
C2
C0
C0
C2
66
3C
10
30
ENDCHAR

STARTCHAR Egrave
ENCODING 200
SWIDTH 660 0
DWIDTH 6 0
BBX 5 11 0 0
BITMAP
C0
60
00
F8
C0
C0
F0
C0
C0
C0
F8
ENDCHAR

STARTCHAR Eacute
ENCODING 201
SWIDTH 660 0
DWIDTH 6 0
BBX 5 11 0 0
BITMAP
18
30
00
F8
C0
C0
F0
C0
C0
C0
F8
ENDCHAR

STARTCHAR Ecircumflex
ENCODING 202
SWIDTH 660 0
DWIDTH 6 0
BBX 5 11 0 0
BITMAP
30
48
00
F8
C0
C0
F0
C0
C0
C0
F8
ENDCHAR

STARTCHAR Edieresis
ENCODING 203
SWIDTH 660 0
DWIDTH 6 0
BBX 5 11 0 0
BITMAP
48
48
00
F8
C0
C0
F0
C0
C0
C0
F8
ENDCHAR

STARTCHAR Igrave
ENCODING 204
SWIDTH 340 0
DWIDTH 3 0
BBX 3 11 -1 0
BITMAP
C0
60
00
60
60
60
60
60
60
60
60
ENDCHAR

STARTCHAR Iacute
ENCODING 205
SWIDTH 340 0
DWIDTH 3 0
BBX 3 11 0 0
BITMAP
60
C0
00
C0
C0
C0
C0
C0
C0
C0
C0
ENDCHAR

STARTCHAR Icircumflex
ENCODING 206
SWIDTH 340 0
DWIDTH 3 0
BBX 4 11 -1 0
BITMAP
60
90
00
60
60
60
60
60
60
60
60
ENDCHAR

STARTCHAR Idieresis
ENCODING 207
SWIDTH 340 0
DWIDTH 3 0
BBX 4 11 -1 0
BITMAP
90
90
00
60
60
60
60
60
60
60
60
ENDCHAR

STARTCHAR Eth
ENCODING 208
SWIDTH 820 0
DWIDTH 8 0
BBX 8 8 -1 0
BITMAP
7C
66
63
F3
63
63
66
7C
ENDCHAR

STARTCHAR Ntilde
ENCODING 209
SWIDTH 760 0
DWIDTH 8 0
BBX 7 11 0 0
BITMAP
34
58
00
C2
E2
F2
BA
9E
8E
86
82
ENDCHAR

STARTCHAR Ograve
ENCODING 210
SWIDTH 860 0
DWIDTH 9 0
BBX 8 11 0 0
BITMAP
30
18
00
3C
66
C3
C3
C3
C3
66
3C
ENDCHAR

STARTCHAR Oacute
ENCODING 211
SWIDTH 860 0
DWIDTH 9 0
BBX 8 11 0 0
BITMAP
06
0C
00
3C
66
C3
C3
C3
C3
66
3C
ENDCHAR

STARTCHAR Ocircumflex
ENCODING 212
SWIDTH 860 0
DWIDTH 9 0
BBX 8 11 0 0
BITMAP
18
24
00
3C
66
C3
C3
C3
C3
66
3C
ENDCHAR

STARTCHAR Otilde
ENCODING 213
SWIDTH 860 0
DWIDTH 9 0
BBX 8 11 0 0
BITMAP
1A
2C
00
3C
66
C3
C3
C3
C3
66
3C
ENDCHAR

STARTCHAR Odieresis
ENCODING 214
SWIDTH 860 0
DWIDTH 9 0
BBX 8 11 0 0
BITMAP
24
24
00
3C
66
C3
C3
C3
C3
66
3C
ENDCHAR

STARTCHAR multiply
ENCODING 215
SWIDTH 660 0
DWIDTH 7 0
BBX 5 5 1 1
BITMAP
88
50
20
50
88
ENDCHAR

STARTCHAR Oslash
ENCODING 216
SWIDTH 860 0
DWIDTH 9 0
BBX 8 8 0 0
BITMAP
3D
66
C7
CB
D3
E3
66
BC
ENDCHAR

STARTCHAR Ugrave
ENCODING 217
SWIDTH 760 0
DWIDTH 8 0
BBX 7 11 0 0
BITMAP
30
18
00
C2
C2
C2
C2
C2
C2
64
38
ENDCHAR

STARTCHAR Uacute
ENCODING 218
SWIDTH 760 0
DWIDTH 8 0
BBX 7 11 0 0
BITMAP
0C
18
00
C2
C2
C2
C2
C2
C2
64
38
ENDCHAR

STARTCHAR Ucircumflex
ENCODING 219
SWIDTH 760 0
DWIDTH 8 0
BBX 7 11 0 0
BITMAP
18
24
00
C2
C2
C2
C2
C2
C2
64
38
ENDCHAR

STARTCHAR Udieresis
ENCODING 220
SWIDTH 760 0
DWIDTH 8 0
BBX 7 11 0 0
BITMAP
24
24
00
C2
C2
C2
C2
C2
C2
64
38
ENDCHAR

STARTCHAR Yacute
ENCODING 221
SWIDTH 740 0
DWIDTH 8 0
BBX 8 11 0 0
BITMAP
0C
18
00
C3
C2
66
64
3C
18
18
18
ENDCHAR

STARTCHAR Thorn
ENCODING 222
SWIDTH 680 0
DWIDTH 7 0
BBX 6 8 0 0
BITMAP
C0
C0
F8
CC
CC
F8
C0
C0
ENDCHAR

STARTCHAR germandbls
ENCODING 223
SWIDTH 660 0
DWIDTH 6 0
BBX 5 8 0 0
BITMAP
70
C8
C8
D0
C8
C8
C8
D0
ENDCHAR

STARTCHAR agrave
ENCODING 224
SWIDTH 580 0
DWIDTH 6 0
BBX 6 8 0 0
BITMAP
60
30
00
70
98
78
D8
6C
ENDCHAR

STARTCHAR aacute
ENCODING 225
SWIDTH 580 0
DWIDTH 6 0
BBX 6 8 0 0
BITMAP
18
30
00
70
98
78
D8
6C
ENDCHAR

STARTCHAR acircumflex
ENCODING 226
SWIDTH 580 0
DWIDTH 6 0
BBX 6 8 0 0
BITMAP
30
48
00
70
98
78
D8
6C
ENDCHAR

STARTCHAR atilde
ENCODING 227
SWIDTH 580 0
DWIDTH 6 0
BBX 6 8 0 0
BITMAP
68
B0
00
70
98
78
D8
6C
ENDCHAR

STARTCHAR adieresis
ENCODING 228
SWIDTH 580 0
DWIDTH 6 0
BBX 6 8 0 0
BITMAP
48
48
00
70
98
78
D8
6C
ENDCHAR

STARTCHAR aring
ENCODING 229
SWIDTH 580 0
DWIDTH 6 0
BBX 6 8 0 0
BITMAP
20
50
20
70
98
78
D8
6C
ENDCHAR

STARTCHAR ae
ENCODING 230
SWIDTH 880 0
DWIDTH 9 0
BBX 8 5 0 0
BITMAP
7E
1B
7E
D8
6E
ENDCHAR

STARTCHAR ccedilla
ENCODING 231
SWIDTH 520 0
DWIDTH 6 0
BBX 5 7 0 -2
BITMAP
70
C8
C0
C8
70
20
60
ENDCHAR

STARTCHAR egrave
ENCODING 232
SWIDTH 560 0
DWIDTH 6 0
BBX 5 8 0 0
BITMAP
60
30
00
70
D8
F0
C0
78
ENDCHAR

STARTCHAR eacute
ENCODING 233
SWIDTH 560 0
DWIDTH 6 0
BBX 5 8 0 0
BITMAP
18
30
00
70
D8
F0
C0
78
ENDCHAR

STARTCHAR ecircumflex
ENCODING 234
SWIDTH 560 0
DWIDTH 6 0
BBX 5 8 0 0
BITMAP
30
48
00
70
D8
F0
C0
78
ENDCHAR

STARTCHAR edieresis
ENCODING 235
SWIDTH 560 0
DWIDTH 6 0
BBX 5 8 0 0
BITMAP
48
48
00
70
D8
F0
C0
78
ENDCHAR

STARTCHAR igrave
ENCODING 236
SWIDTH 300 0
DWIDTH 3 0
BBX 3 8 -1 0
BITMAP
C0
60
00
60
60
60
60
60
ENDCHAR

STARTCHAR iacute
ENCODING 237
SWIDTH 300 0
DWIDTH 3 0
BBX 3 8 0 0
BITMAP
60
C0
00
C0
C0
C0
C0
C0
ENDCHAR

STARTCHAR icircumflex
ENCODING 238
SWIDTH 300 0
DWIDTH 3 0
BBX 4 8 -1 0
BITMAP
60
90
00
60
60
60
60
60
ENDCHAR

STARTCHAR idieresis
ENCODING 239
SWIDTH 300 0
DWIDTH 3 0
BBX 4 8 -1 0
BITMAP
90
90
00
60
60
60
60
60
ENDCHAR

STARTCHAR eth
ENCODING 240
SWIDTH 660 0
DWIDTH 6 0
BBX 5 8 0 0
BITMAP
C8
70
90
78
D8
D8
D8
70
ENDCHAR

STARTCHAR ntilde
ENCODING 241
SWIDTH 620 0
DWIDTH 6 0
BBX 5 8 0 0
BITMAP
68
B0
00
B0
D8
D8
D8
D8
ENDCHAR

STARTCHAR ograve
ENCODING 242
SWIDTH 620 0
DWIDTH 6 0
BBX 5 8 0 0
BITMAP
60
30
00
70
D8
D8
D8
70
ENDCHAR

STARTCHAR oacute
ENCODING 243
SWIDTH 620 0
DWIDTH 6 0
BBX 5 8 0 0
BITMAP
18
30
00
70
D8
D8
D8
70
ENDCHAR

STARTCHAR ocircumflex
ENCODING 244
SWIDTH 620 0
DWIDTH 6 0
BBX 5 8 0 0
BITMAP
30
48
00
70
D8
D8
D8
70
ENDCHAR

STARTCHAR otilde
ENCODING 245
SWIDTH 620 0
DWIDTH 6 0
BBX 5 8 0 0
BITMAP
68
B0
00
70
D8
D8
D8
70
ENDCHAR

STARTCHAR odieresis
ENCODING 246
SWIDTH 620 0
DWIDTH 6 0
BBX 5 8 0 0
BITMAP
48
48
00
70
D8
D8
D8
70
ENDCHAR

STARTCHAR divide
ENCODING 247
SWIDTH 660 0
DWIDTH 7 0
BBX 5 5 1 1
BITMAP
20
00
F8
00
20
ENDCHAR

STARTCHAR oslash
ENCODING 248
SWIDTH 620 0
DWIDTH 6 0
BBX 7 6 -1 0
BITMAP
02
3C
6C
7C
6C
B8
ENDCHAR

STARTCHAR ugrave
ENCODING 249
SWIDTH 620 0
DWIDTH 6 0
BBX 5 8 0 0
BITMAP
60
30
00
D8
D8
D8
D8
68
ENDCHAR

STARTCHAR uacute
ENCODING 250
SWIDTH 620 0
DWIDTH 6 0
BBX 5 8 0 0
BITMAP
18
30
00
D8
D8
D8
D8
68
ENDCHAR

STARTCHAR ucircumflex
ENCODING 251
SWIDTH 620 0
DWIDTH 6 0
BBX 5 8 0 0
BITMAP
30
48
00
D8
D8
D8
D8
68
ENDCHAR

STARTCHAR udieresis
ENCODING 252
SWIDTH 620 0
DWIDTH 6 0
BBX 5 8 0 0
BITMAP
48
48
00
D8
D8
D8
D8
68
ENDCHAR

STARTCHAR yacute
ENCODING 253
SWIDTH 540 0
DWIDTH 6 0
BBX 5 10 0 -2
BITMAP
18
30
00
C8
C8
C8
48
30
10
60
ENDCHAR

STARTCHAR thorn
ENCODING 254
SWIDTH 640 0
DWIDTH 6 0
BBX 5 10 0 -2
BITMAP
C0
C0
C0
F0
D8
D8
D8
F0
C0
C0
ENDCHAR

STARTCHAR ydieresis
ENCODING 255
SWIDTH 540 0
DWIDTH 6 0
BBX 5 10 0 -2
BITMAP
48
48
00
C8
C8
C8
48
30
10
60
ENDCHAR
ENDFONT
